<svg xmlns="http://www.w3.org/2000/svg" viewBox="0 0 96 96" role="img" aria-labelledby="logoTitle logoDesc">
  <title id="logoTitle">LGU Seal</title>
  <desc id="logoDesc">Municipality style logo placeholder for the queue system header.</desc>
  <defs>
    <linearGradient id="ring" x1="0%" y1="0%" x2="100%" y2="100%">
      <stop offset="0%" stop-color="#f8fcff"/>
      <stop offset="100%" stop-color="#c8d7ff"/>
    </linearGradient>
    <linearGradient id="shield" x1="50%" y1="0%" x2="50%" y2="100%">
      <stop offset="0%" stop-color="#3a68d8"/>
      <stop offset="100%" stop-color="#1a3f9f"/>
    </linearGradient>
  </defs>

  <circle cx="48" cy="48" r="46" fill="url(#ring)" stroke="#0f2d7f" stroke-width="2"/>
  <circle cx="48" cy="48" r="37" fill="#f4f8ff" stroke="#99b2f6" stroke-width="1.5"/>
  <path d="M48 21 L67 30 V44 C67 57 58 67 48 73 C38 67 29 57 29 44 V30 Z" fill="url(#shield)" stroke="#0d2e7f" stroke-width="1.4"/>
  <path d="M39 46h18M39 51h18M39 56h18" stroke="#dbe6ff" stroke-width="2" stroke-linecap="round"/>
  <path d="M44 37h8v7h-8z" fill="#dbe6ff"/>
  <path d="M35 66c3-2 8-3 13-3s10 1 13 3" fill="none" stroke="#dbe6ff" stroke-width="2" stroke-linecap="round"/>
  <text x="48" y="85" text-anchor="middle" font-size="8" font-family="Arial, sans-serif" fill="#0d2e7f" font-weight="700">M.F.</text>
</svg>
